<?xml version="1.0" encoding="utf-8"?>
<svg width="162" height="74" viewBox="0 0 162 74" fill="none" xmlns="http://www.w3.org/2000/svg">
  <path d="M86 14.9024V7.73438C86 4.56737 88.5674 2 91.7344 2H153.379C156.546 2 159.113 4.56737 159.113 7.73438V47.8751C159.113 51.0421 156.546 53.6094 153.379 53.6094H143.344L146.698 69.2603C146.991 70.6282 145.351 71.563 144.323 70.6141L129.008 56.4766H91.7344C88.5674 56.4766 86 53.9093 86 50.7422V47.8751" stroke="#8257E5" stroke-width="4"/>
  <path d="M10.1759 16.7273V40H5.33494V16.7273H10.1759ZM20.4082 40.3409C18.6128 40.3409 17.0673 39.9773 15.7719 39.25C14.484 38.5152 13.4916 37.4773 12.7946 36.1364C12.0976 34.7879 11.7491 33.1932 11.7491 31.3523C11.7491 29.5568 12.0976 27.9811 12.7946 26.625C13.4916 25.2689 14.4726 24.2121 15.7378 23.4545C17.0105 22.697 18.5029 22.3182 20.2151 22.3182C21.3666 22.3182 22.4385 22.5038 23.431 22.875C24.431 23.2386 25.3022 23.7879 26.0446 24.5227C26.7946 25.2576 27.3779 26.1818 27.7946 27.2955C28.2113 28.4015 28.4196 29.697 28.4196 31.1818V32.5114H13.681V29.5114H23.8628C23.8628 28.8144 23.7113 28.197 23.4082 27.6591C23.1052 27.1212 22.6848 26.7008 22.1469 26.3977C21.6166 26.0871 20.9991 25.9318 20.2946 25.9318C19.5598 25.9318 18.9082 26.1023 18.3401 26.4432C17.7795 26.7765 17.3401 27.2273 17.0219 27.7955C16.7037 28.3561 16.5408 28.9811 16.5332 29.6705V32.5227C16.5332 33.3864 16.6923 34.1326 17.0105 34.7614C17.3363 35.3902 17.7946 35.875 18.3855 36.2159C18.9764 36.5568 19.6772 36.7273 20.4878 36.7273C21.0257 36.7273 21.5181 36.6515 21.9651 36.5C22.412 36.3485 22.7946 36.1212 23.1128 35.8182C23.431 35.5152 23.6734 35.1439 23.8401 34.7045L28.3173 35C28.0901 36.0758 27.6241 37.0152 26.9196 37.8182C26.2226 38.6136 25.3211 39.2348 24.2151 39.6818C23.1166 40.1212 21.8476 40.3409 20.4082 40.3409ZM39.2628 22.5455V26.1818H28.7514V22.5455H39.2628ZM31.1378 18.3636H35.9787V34.6364C35.9787 35.0833 36.0469 35.4318 36.1832 35.6818C36.3196 35.9242 36.509 36.0947 36.7514 36.1932C37.0014 36.2917 37.2893 36.3409 37.6151 36.3409C37.8423 36.3409 38.0696 36.322 38.2969 36.2841C38.5241 36.2386 38.6984 36.2045 38.8196 36.1818L39.581 39.7841C39.3385 39.8598 38.9976 39.947 38.5582 40.0455C38.1188 40.1515 37.5848 40.2159 36.956 40.2386C35.7893 40.2841 34.7666 40.1288 33.8878 39.7727C33.0166 39.4167 32.3385 38.8636 31.8537 38.1136C31.3688 37.3636 31.1302 36.4167 31.1378 35.2727V18.3636ZM40.8162 40V22.5455H45.4298V25.625H45.6344C45.998 24.6023 46.6041 23.7955 47.4526 23.2045C48.301 22.6136 49.3162 22.3182 50.498 22.3182C51.695 22.3182 52.7139 22.6174 53.5548 23.2159C54.3957 23.8068 54.9563 24.6098 55.2367 25.625H55.4185C55.7745 24.625 56.4185 23.8258 57.3503 23.2273C58.2897 22.6212 59.3995 22.3182 60.6798 22.3182C62.3086 22.3182 63.6306 22.8371 64.6457 23.875C65.6685 24.9053 66.1798 26.3674 66.1798 28.2614V40H61.3503V29.2159C61.3503 28.2462 61.0927 27.5189 60.5776 27.0341C60.0624 26.5492 59.4185 26.3068 58.6457 26.3068C57.767 26.3068 57.0813 26.5871 56.5889 27.1477C56.0965 27.7008 55.8503 28.4318 55.8503 29.3409V40H51.1571V29.1136C51.1571 28.2576 50.9109 27.5758 50.4185 27.0682C49.9336 26.5606 49.2935 26.3068 48.498 26.3068C47.9601 26.3068 47.4753 26.4432 47.0435 26.7159C46.6192 26.9811 46.2821 27.3561 46.0321 27.8409C45.7821 28.3182 45.6571 28.8788 45.6571 29.5227V40H40.8162ZM76.3582 40.3409C74.5628 40.3409 73.0173 39.9773 71.7219 39.25C70.434 38.5152 69.4416 37.4773 68.7446 36.1364C68.0476 34.7879 67.6991 33.1932 67.6991 31.3523C67.6991 29.5568 68.0476 27.9811 68.7446 26.625C69.4416 25.2689 70.4226 24.2121 71.6878 23.4545C72.9605 22.697 74.4529 22.3182 76.1651 22.3182C77.3166 22.3182 78.3885 22.5038 79.381 22.875C80.381 23.2386 81.2522 23.7879 81.9946 24.5227C82.7446 25.2576 83.3279 26.1818 83.7446 27.2955C84.1613 28.4015 84.3696 29.697 84.3696 31.1818V32.5114H69.631V29.5114H79.8128C79.8128 28.8144 79.6613 28.197 79.3582 27.6591C79.0552 27.1212 78.6348 26.7008 78.0969 26.3977C77.5666 26.0871 76.9491 25.9318 76.2446 25.9318C75.5098 25.9318 74.8582 26.1023 74.2901 26.4432C73.7295 26.7765 73.2901 27.2273 72.9719 27.7955C72.6537 28.3561 72.4908 28.9811 72.4832 29.6705V32.5227C72.4832 33.3864 72.6423 34.1326 72.9605 34.7614C73.2863 35.3902 73.7446 35.875 74.3355 36.2159C74.9264 36.5568 75.6272 36.7273 76.4378 36.7273C76.9757 36.7273 77.4681 36.6515 77.9151 36.5C78.362 36.3485 78.7446 36.1212 79.0628 35.8182C79.381 35.5152 79.6234 35.1439 79.7901 34.7045L84.2673 35C84.0401 36.0758 83.5741 37.0152 82.8696 37.8182C82.1726 38.6136 81.2711 39.2348 80.1651 39.6818C79.0666 40.1212 77.7976 40.3409 76.3582 40.3409Z" style="fill: rgb(245, 245, 245);"/>
  <path d="M93.0662 40V22.5455H97.7594V25.5909H97.9412C98.2594 24.5076 98.7935 23.6894 99.5435 23.1364C100.293 22.5758 101.157 22.2955 102.134 22.2955C102.377 22.2955 102.638 22.3106 102.918 22.3409C103.199 22.3712 103.445 22.4129 103.657 22.4659V26.7614C103.43 26.6932 103.115 26.6326 102.714 26.5795C102.312 26.5265 101.945 26.5 101.612 26.5C100.9 26.5 100.263 26.6553 99.7026 26.9659C99.1495 27.2689 98.7101 27.6932 98.3844 28.2386C98.0662 28.7841 97.9071 29.4129 97.9071 30.125V40H93.0662ZM109.037 40.3295C107.924 40.3295 106.931 40.1364 106.06 39.75C105.189 39.3561 104.499 38.7765 103.992 38.0114C103.492 37.2386 103.242 36.2765 103.242 35.125C103.242 34.1553 103.42 33.3409 103.776 32.6818C104.132 32.0227 104.617 31.4924 105.23 31.0909C105.844 30.6894 106.541 30.3864 107.321 30.1818C108.109 29.9773 108.935 29.8333 109.799 29.75C110.814 29.6439 111.632 29.5455 112.253 29.4545C112.874 29.3561 113.325 29.2121 113.605 29.0227C113.886 28.8333 114.026 28.553 114.026 28.1818V28.1136C114.026 27.3939 113.799 26.8371 113.344 26.4432C112.897 26.0492 112.261 25.8523 111.435 25.8523C110.564 25.8523 109.871 26.0455 109.355 26.4318C108.84 26.8106 108.499 27.2879 108.333 27.8636L103.855 27.5C104.083 26.4394 104.53 25.5227 105.196 24.75C105.863 23.9697 106.723 23.3712 107.776 22.9545C108.836 22.5303 110.064 22.3182 111.458 22.3182C112.427 22.3182 113.355 22.4318 114.242 22.6591C115.136 22.8864 115.927 23.2386 116.617 23.7159C117.314 24.1932 117.863 24.8068 118.264 25.5568C118.666 26.2992 118.867 27.1894 118.867 28.2273V40H114.276V37.5795H114.139C113.859 38.125 113.484 38.6061 113.014 39.0227C112.545 39.4318 111.98 39.7538 111.321 39.9886C110.662 40.2159 109.901 40.3295 109.037 40.3295ZM110.424 36.9886C111.136 36.9886 111.764 36.8485 112.31 36.5682C112.855 36.2803 113.283 35.8939 113.594 35.4091C113.905 34.9242 114.06 34.375 114.06 33.7614V31.9091C113.908 32.0076 113.7 32.0985 113.435 32.1818C113.177 32.2576 112.886 32.3295 112.56 32.3977C112.234 32.4583 111.908 32.5152 111.583 32.5682C111.257 32.6136 110.961 32.6553 110.696 32.6932C110.128 32.7765 109.632 32.9091 109.208 33.0909C108.783 33.2727 108.454 33.5189 108.219 33.8295C107.984 34.1326 107.867 34.5114 107.867 34.9659C107.867 35.625 108.105 36.1288 108.583 36.4773C109.068 36.8182 109.681 36.9886 110.424 36.9886ZM130.307 22.5455V26.1818H119.795V22.5455H130.307ZM122.182 18.3636H127.022V34.6364C127.022 35.0833 127.091 35.4318 127.227 35.6818C127.363 35.9242 127.553 36.0947 127.795 36.1932C128.045 36.2917 128.333 36.3409 128.659 36.3409C128.886 36.3409 129.113 36.322 129.341 36.2841C129.568 36.2386 129.742 36.2045 129.863 36.1818L130.625 39.7841C130.382 39.8598 130.041 39.947 129.602 40.0455C129.163 40.1515 128.629 40.2159 128 40.2386C126.833 40.2841 125.81 40.1288 124.932 39.7727C124.06 39.4167 123.382 38.8636 122.897 38.1136C122.413 37.3636 122.174 36.4167 122.182 35.2727V18.3636ZM139.627 40.3409C137.832 40.3409 136.286 39.9773 134.991 39.25C133.703 38.5152 132.71 37.4773 132.013 36.1364C131.316 34.7879 130.968 33.1932 130.968 31.3523C130.968 29.5568 131.316 27.9811 132.013 26.625C132.71 25.2689 133.691 24.2121 134.957 23.4545C136.229 22.697 137.722 22.3182 139.434 22.3182C140.585 22.3182 141.657 22.5038 142.65 22.875C143.65 23.2386 144.521 23.7879 145.263 24.5227C146.013 25.2576 146.597 26.1818 147.013 27.2955C147.43 28.4015 147.638 29.697 147.638 31.1818V32.5114H132.9V29.5114H143.082C143.082 28.8144 142.93 28.197 142.627 27.6591C142.324 27.1212 141.904 26.7008 141.366 26.3977C140.835 26.0871 140.218 25.9318 139.513 25.9318C138.779 25.9318 138.127 26.1023 137.559 26.4432C136.998 26.7765 136.559 27.2273 136.241 27.7955C135.922 28.3561 135.76 28.9811 135.752 29.6705V32.5227C135.752 33.3864 135.911 34.1326 136.229 34.7614C136.555 35.3902 137.013 35.875 137.604 36.2159C138.195 36.5568 138.896 36.7273 139.707 36.7273C140.244 36.7273 140.737 36.6515 141.184 36.5C141.631 36.3485 142.013 36.1212 142.332 35.8182C142.65 35.5152 142.892 35.1439 143.059 34.7045L147.536 35C147.309 36.0758 146.843 37.0152 146.138 37.8182C145.441 38.6136 144.54 39.2348 143.434 39.6818C142.335 40.1212 141.066 40.3409 139.627 40.3409Z" fill="#996DFF"/>
</svg>