<svg width="154" height="150" viewBox="0 0 154 150" fill="none" xmlns="http://www.w3.org/2000/svg">
<circle opacity="0.1" cx="75" cy="75" r="75" fill="#835AFD"/>
<path d="M9 29.7229V62.7836V65.145C9 67.7534 11.1145 69.868 13.7229 69.868H44.4221L57.0363 81.5118C57.883 82.2934 59.2331 81.5235 58.9917 80.3968L56.2295 67.5065H64.4946C67.103 67.5065 69.2175 65.392 69.2175 62.7836V29.7229C69.2175 27.1145 67.103 25 64.4946 25H13.7229C11.1145 25 9 27.1145 9 29.7229Z" fill="#8B66E1"/>
<path d="M35.8077 51.5558C35.6244 51.7061 35.433 51.7115 35.2335 51.5719C35.034 51.4323 34.972 51.2498 35.0475 51.0242L36.115 47.5611L33.3653 45.596C33.1712 45.4564 33.1092 45.2765 33.1793 45.0563C33.2494 44.8362 33.403 44.7261 33.6403 44.7261H37.0532L38.1369 41.118C38.1692 40.9999 38.2312 40.9113 38.3229 40.8522C38.4145 40.7932 38.5089 40.7636 38.6059 40.7636C38.703 40.7636 38.7973 40.7932 38.889 40.8522C38.9807 40.9113 39.0427 40.9999 39.075 41.118L40.1587 44.7261H43.5716C43.8088 44.7261 43.9625 44.8362 44.0326 45.0563C44.1027 45.2765 44.0407 45.4564 43.8466 45.596L41.0969 47.5611L42.1644 51.0242C42.2399 51.2498 42.1779 51.4323 41.9784 51.5719C41.7789 51.7115 41.5875 51.7061 41.4042 51.5558L38.6059 49.4296L35.8077 51.5558Z" fill="#F8F8F8"/>
<path d="M153.218 54.7229V87.7836V90.145C153.218 92.7534 151.103 94.868 148.495 94.868H117.795L105.181 106.512C104.335 107.293 102.984 106.524 103.226 105.397L105.988 92.5065H97.7229C95.1145 92.5065 93 90.392 93 87.7836V54.7229C93 52.1145 95.1145 50 97.7229 50H148.495C151.103 50 153.218 52.1145 153.218 54.7229Z" fill="#FF6996"/>
<path d="M45 100.41V117.281V118.486C45 119.817 46.0886 120.896 47.4314 120.896H63.2353L69.7291 126.838C70.1649 127.237 70.86 126.844 70.7357 126.269L69.3137 119.691H73.5686C74.9114 119.691 76 118.612 76 117.281V100.41C76 99.079 74.9114 98 73.5686 98H47.4314C46.0886 98 45 99.079 45 100.41Z" fill="#DA7593"/>
<path d="M22.8077 51.5558C22.6244 51.7061 22.433 51.7115 22.2335 51.5719C22.034 51.4323 21.972 51.2498 22.0475 51.0242L23.115 47.5611L20.3653 45.596C20.1712 45.4564 20.1092 45.2765 20.1793 45.0563C20.2494 44.8362 20.403 44.7261 20.6403 44.7261H24.0532L25.1369 41.118C25.1692 40.9999 25.2312 40.9113 25.3229 40.8522C25.4145 40.7932 25.5089 40.7636 25.6059 40.7636C25.703 40.7636 25.7973 40.7932 25.889 40.8522C25.9807 40.9113 26.0427 40.9999 26.075 41.118L27.1587 44.7261H30.5716C30.8088 44.7261 30.9625 44.8362 31.0326 45.0563C31.1027 45.2765 31.0407 45.4564 30.8466 45.596L28.0969 47.5611L29.1644 51.0242C29.2399 51.2498 29.1779 51.4323 28.9784 51.5719C28.7789 51.7115 28.5875 51.7061 28.4042 51.5558L25.6059 49.4296L22.8077 51.5558Z" fill="#F8F8F8"/>
<path d="M48.8077 51.5558C48.6244 51.7061 48.433 51.7115 48.2335 51.5719C48.034 51.4323 47.972 51.2498 48.0475 51.0242L49.115 47.5611L46.3653 45.596C46.1712 45.4564 46.1092 45.2765 46.1793 45.0563C46.2494 44.8362 46.403 44.7261 46.6403 44.7261H50.0532L51.1369 41.118C51.1692 40.9999 51.2312 40.9113 51.3229 40.8522C51.4145 40.7932 51.5089 40.7636 51.6059 40.7636C51.703 40.7636 51.7973 40.7932 51.889 40.8522C51.9807 40.9113 52.0427 40.9999 52.075 41.118L53.1587 44.7261H56.5716C56.8088 44.7261 56.9625 44.8362 57.0326 45.0563C57.1027 45.2765 57.0407 45.4564 56.8466 45.596L54.0969 47.5611L55.1644 51.0242C55.2399 51.2498 55.1779 51.4323 54.9784 51.5719C54.7789 51.7115 54.5875 51.7061 54.4042 51.5558L51.6059 49.4296L48.8077 51.5558Z" fill="#F8F8F8"/>
<path d="M119.808 76.5558C119.624 76.7061 119.433 76.7115 119.233 76.5719C119.034 76.4323 118.972 76.2498 119.047 76.0242L120.115 72.5611L117.365 70.596C117.171 70.4564 117.109 70.2765 117.179 70.0563C117.249 69.8362 117.403 69.7261 117.64 69.7261H121.053L122.137 66.118C122.169 65.9999 122.231 65.9113 122.323 65.8522C122.415 65.7932 122.509 65.7636 122.606 65.7636C122.703 65.7636 122.797 65.7932 122.889 65.8522C122.981 65.9113 123.043 65.9999 123.075 66.118L124.159 69.7261H127.572C127.809 69.7261 127.963 69.8362 128.033 70.0563C128.103 70.2765 128.041 70.4564 127.847 70.596L125.097 72.5611L126.164 76.0242C126.24 76.2498 126.178 76.4323 125.978 76.5719C125.779 76.7115 125.588 76.7061 125.404 76.5558L122.606 74.4296L119.808 76.5558Z" fill="#F8F8F8"/>
<path d="M106.808 76.5558C106.624 76.7061 106.433 76.7115 106.233 76.5719C106.034 76.4323 105.972 76.2498 106.047 76.0242L107.115 72.5611L104.365 70.596C104.171 70.4564 104.109 70.2765 104.179 70.0563C104.249 69.8362 104.403 69.7261 104.64 69.7261H108.053L109.137 66.118C109.169 65.9999 109.231 65.9113 109.323 65.8522C109.415 65.7932 109.509 65.7636 109.606 65.7636C109.703 65.7636 109.797 65.7932 109.889 65.8522C109.981 65.9113 110.043 65.9999 110.075 66.118L111.159 69.7261H114.572C114.809 69.7261 114.963 69.8362 115.033 70.0563C115.103 70.2765 115.041 70.4564 114.847 70.596L112.097 72.5611L113.164 76.0242C113.24 76.2498 113.178 76.4323 112.978 76.5719C112.779 76.7115 112.588 76.7061 112.404 76.5558L109.606 74.4296L106.808 76.5558Z" fill="#F8F8F8"/>
<path d="M132.808 76.5558C132.624 76.7061 132.433 76.7115 132.233 76.5719C132.034 76.4323 131.972 76.2498 132.047 76.0242L133.115 72.5611L130.365 70.596C130.171 70.4564 130.109 70.2765 130.179 70.0563C130.249 69.8362 130.403 69.7261 130.64 69.7261H134.053L135.137 66.118C135.169 65.9999 135.231 65.9113 135.323 65.8522C135.415 65.7932 135.509 65.7636 135.606 65.7636C135.703 65.7636 135.797 65.7932 135.889 65.8522C135.981 65.9113 136.043 65.9999 136.075 66.118L137.159 69.7261H140.572C140.809 69.7261 140.963 69.8362 141.033 70.0563C141.103 70.2765 141.041 70.4564 140.847 70.596L138.097 72.5611L139.164 76.0242C139.24 76.2498 139.178 76.4323 138.978 76.5719C138.779 76.7115 138.588 76.7061 138.404 76.5558L135.606 74.4296L132.808 76.5558Z" fill="#F8F8F8"/>
<path opacity="0.7" d="M52.4038 111.778C52.3122 111.853 52.2165 111.856 52.1167 111.786C52.017 111.716 51.986 111.625 52.0237 111.512L52.5575 109.781L51.1827 108.798C51.0856 108.728 51.0546 108.638 51.0896 108.528C51.1247 108.418 51.2015 108.363 51.3201 108.363H53.0266L53.5684 106.559C53.5846 106.5 53.6156 106.456 53.6614 106.426C53.7073 106.397 53.7544 106.382 53.803 106.382C53.8515 106.382 53.8987 106.397 53.9445 106.426C53.9903 106.456 54.0213 106.5 54.0375 106.559L54.5794 108.363H56.2858C56.4044 108.363 56.4813 108.418 56.5163 108.528C56.5513 108.638 56.5203 108.728 56.4233 108.798L55.0484 109.781L55.5822 111.512C55.6199 111.625 55.5889 111.716 55.4892 111.786C55.3895 111.856 55.2938 111.853 55.2021 111.778L53.803 110.715L52.4038 111.778Z" fill="#F8F8F8"/>
<path opacity="0.7" d="M59.4038 111.778C59.3122 111.853 59.2165 111.856 59.1167 111.786C59.017 111.716 58.986 111.625 59.0237 111.512L59.5575 109.781L58.1827 108.798C58.0856 108.728 58.0546 108.638 58.0896 108.528C58.1247 108.418 58.2015 108.363 58.3201 108.363H60.0266L60.5684 106.559C60.5846 106.5 60.6156 106.456 60.6614 106.426C60.7073 106.397 60.7544 106.382 60.803 106.382C60.8515 106.382 60.8987 106.397 60.9445 106.426C60.9903 106.456 61.0213 106.5 61.0375 106.559L61.5794 108.363H63.2858C63.4044 108.363 63.4813 108.418 63.5163 108.528C63.5513 108.638 63.5203 108.728 63.4233 108.798L62.0484 109.781L62.5822 111.512C62.6199 111.625 62.5889 111.716 62.4892 111.786C62.3895 111.856 62.2938 111.853 62.2021 111.778L60.803 110.715L59.4038 111.778Z" fill="#F8F8F8"/>
<path opacity="0.7" d="M66.4038 111.778C66.3122 111.853 66.2165 111.856 66.1167 111.786C66.017 111.716 65.986 111.625 66.0237 111.512L66.5575 109.781L65.1827 108.798C65.0856 108.728 65.0546 108.638 65.0896 108.528C65.1247 108.418 65.2015 108.363 65.3201 108.363H67.0266L67.5684 106.559C67.5846 106.5 67.6156 106.456 67.6614 106.426C67.7073 106.397 67.7544 106.382 67.803 106.382C67.8515 106.382 67.8987 106.397 67.9445 106.426C67.9903 106.456 68.0213 106.5 68.0375 106.559L68.5794 108.363H70.2858C70.4044 108.363 70.4813 108.418 70.5163 108.528C70.5513 108.638 70.5203 108.728 70.4233 108.798L69.0484 109.781L69.5822 111.512C69.6199 111.625 69.5889 111.716 69.4892 111.786C69.3895 111.856 69.2938 111.853 69.2021 111.778L67.803 110.715L66.4038 111.778Z" fill="#F8F8F8"/>
</svg>
